<svg width="104" height="48" viewBox="0 0 104 48" fill="none" xmlns="http://www.w3.org/2000/svg">
<g id="boomerang_footer">
<g id="Boomerang_vertical">
<path id="Fill 94" fill-rule="evenodd" clip-rule="evenodd" d="M16.3171 26.1815C13.0503 28.5864 4.2691 35.2839 1.64236 38.3563C-1.00143 41.4483 -0.0136228 43.7638 1.53928 44.6551C2.48704 45.1994 3.81821 44.9967 5.19535 44.7444C8.00452 44.2309 11.7807 42.802 16.0783 40.8799C16.346 40.7597 16.61 40.6216 16.8889 40.5142C17.0935 40.4361 17.2092 40.2597 17.2092 39.9428C17.2092 37.7909 17.2203 26.9451 17.2203 26.5216C17.2203 26.1349 16.8266 25.806 16.3171 26.1815Z" fill="white"/>
<path id="Fill 95" fill-rule="evenodd" clip-rule="evenodd" d="M53.8567 4.73906C53.6016 4.84493 53.3428 4.9538 53.081 5.06568C48.8287 6.8767 43.7636 9.38074 38.4856 12.2737C38.2357 12.4104 37.9865 12.5493 37.7351 12.6867C37.5564 12.7835 37.4044 12.96 37.4044 13.2416C37.4044 15.6683 37.4044 29.1653 37.4044 29.326C37.4044 29.8418 37.7885 30.0768 38.2402 29.8651C38.4397 29.772 38.5079 29.742 38.7037 29.6421C43.9905 26.9616 49.0816 24.4643 53.4325 22.6638C53.724 22.5437 54.0154 22.4341 54.2965 22.3117C54.4626 22.2396 54.6346 22.1225 54.6346 21.6885C54.6346 18.9374 54.6346 5.50642 54.6346 5.17005C54.6346 4.79463 54.2312 4.58364 53.8567 4.73906Z" fill="white"/>
<path id="Fill 96" fill-rule="evenodd" clip-rule="evenodd" d="M19.4199 39.3397C24.4969 36.9363 30.0915 34.041 35.6023 31.2231C35.7091 31.1683 35.9212 31.0264 35.9212 30.6863C35.9212 28.2844 35.9212 15.1004 35.9212 14.6026C35.9212 14.0545 35.359 13.9764 35.0728 14.1814C29.5701 17.3184 24.0794 20.7415 19.0632 24.2336C18.9757 24.2944 18.6917 24.4333 18.6917 24.8208C18.6917 26.9486 18.6917 38.3899 18.6917 38.8051C18.6917 39.3915 19.1759 39.4553 19.4199 39.3397Z" fill="white"/>
<path id="Fill 97" fill-rule="evenodd" clip-rule="evenodd" d="M73.0596 5.9832C69.7091 3.57601 66.2874 2 63.1378 2C61.8326 2 59.7924 2.51357 57.2443 3.42359C57.0063 3.50843 56.7638 3.59778 56.5168 3.68863C56.3166 3.76222 56.1201 3.90262 56.1178 4.2435C56.1 6.80236 56.1178 20.6185 56.1178 20.8205C56.1178 21.1366 56.3863 21.524 56.8965 21.3243C57.4913 21.0923 58.0045 20.9511 58.5629 20.78C60.4413 20.2041 62.0573 19.8752 63.3254 19.8752C66.01 19.8752 69.1914 21.7583 72.5301 24.1294C72.8015 24.3224 73.3474 24.2458 73.3474 23.7247C73.3474 19.9653 73.3474 6.80311 73.3474 6.53131C73.3474 6.2137 73.156 6.05227 73.0596 5.9832Z" fill="white"/>
<path id="Fill 98" fill-rule="evenodd" clip-rule="evenodd" d="M74.8306 8.47808C74.8306 8.61699 74.8306 22.955 74.8306 25.4425C74.8306 25.679 74.9344 25.881 75.1457 26.0432C75.4142 26.2489 75.6879 26.4479 75.9593 26.6506C80.6076 30.1217 85.3353 33.6274 89.2791 33.6274C90.1816 33.6274 92.0601 32.7512 91.9985 30.3109C91.9985 27.4991 84.7665 16.0255 76.3004 8.57569C76.0861 8.38798 75.8822 8.18751 75.656 8.01932C75.2622 7.72724 74.8291 8.03509 74.8306 8.47808Z" fill="white"/>
</g>
</g>
</svg>
