<svg width="32" height="32" viewBox="0 0 32 32" fill="none" xmlns="http://www.w3.org/2000/svg">
<g id="social_linkedin">
<path id="Shape" fill-rule="evenodd" clip-rule="evenodd" d="M27.2657 27.2656H22.5245V19.8383C22.5245 18.0674 22.4926 15.787 20.0581 15.787C17.5887 15.787 17.2106 17.7163 17.2106 19.7082V27.265H12.4694V11.9954H17.0209V14.0824H17.0823C18.0106 12.4955 19.7365 11.5478 21.5737 11.6161C26.3793 11.6161 27.2657 14.7773 27.2657 18.8893V27.2656ZM7.11902 9.90795C6.00597 9.90819 5.00238 9.2379 4.57626 8.20965C4.15014 7.1814 4.38542 5.99771 5.17238 5.21057C5.95934 4.42344 7.14298 4.1879 8.17132 4.61379C9.19967 5.03967 9.87018 6.04311 9.87019 7.15616C9.87019 8.67569 8.63854 9.90761 7.11902 9.90795ZM9.4896 27.265H4.74349V11.9954H9.49021L9.4896 27.265ZM29.6269 0.00208464H2.36078C1.74129 -0.00544544 1.14426 0.233779 0.70138 0.666989C0.258497 1.1002 0.00614952 1.6918 0 2.3113V29.688C0.0151704 30.9774 1.07195 32.0108 2.36139 31.9972H29.6269C30.9198 32.0146 31.9822 30.9808 32 29.688V2.30639C31.9815 1.01428 30.9191 -0.0181951 29.6269 0.000243161" fill="#005DA0"/>
</g>
</svg>
