<svg width="34" height="34" viewBox="0 0 34 34" fill="none" xmlns="http://www.w3.org/2000/svg">
<g id="social_facebook">
<path fill-rule="evenodd" clip-rule="evenodd" d="M33 17.0978C33 8.20722 25.8366 1 17 1C8.16344 1 1 8.20722 1 17.0978C1 25.1327 6.85097 31.7924 14.5 33V21.751H10.4375V17.0978H14.5V13.5512C14.5 9.51673 16.8887 7.2882 20.5434 7.2882C22.294 7.2882 24.125 7.60261 24.125 7.60261V11.5642H22.1074C20.1198 11.5642 19.5 12.8051 19.5 14.0781V17.0978H23.9375L23.2281 21.751H19.5V33C27.149 31.7924 33 25.1327 33 17.0978" fill="#005DA0"/>
<path d="M33 17.0978C33 8.20722 25.8366 1 17 1C8.16344 1 1 8.20722 1 17.0978C1 25.1327 6.85097 31.7924 14.5 33V21.751H10.4375V17.0978H14.5V13.5512C14.5 9.51673 16.8887 7.2882 20.5434 7.2882C22.294 7.2882 24.125 7.60261 24.125 7.60261V11.5642H22.1074C20.1198 11.5642 19.5 12.8051 19.5 14.0781V17.0978H23.9375L23.2281 21.751H19.5V33C27.149 31.7924 33 25.1327 33 17.0978" stroke="black"/>
</g>
</svg>
