<svg width="32" height="32" viewBox="0 0 32 32" fill="none" xmlns="http://www.w3.org/2000/svg">
<path id="social_twitter" fill-rule="evenodd" clip-rule="evenodd" d="M16 32C24.8366 32 32 24.8366 32 16C32 7.16344 24.8366 0 16 0C7.16344 0 0 7.16344 0 16C0 24.8366 7.16344 32 16 32ZM24.4958 12.5051C24.4958 12.3303 24.4958 12.1563 24.483 11.983C25.3395 11.4111 26.0789 10.703 26.6667 9.89178C25.8678 10.2185 25.0204 10.4328 24.1527 10.5274C25.0664 10.0225 25.7503 9.22842 26.077 8.2929C25.2178 8.76346 24.2779 9.09506 23.2977 9.27346C21.6401 7.64659 18.8675 7.56803 17.1049 9.09802C15.9682 10.0847 15.4859 11.5551 15.8387 12.958C12.3195 12.7952 9.04057 11.261 6.81812 8.73706C5.65645 10.5831 6.24981 12.9446 8.17324 14.1301C7.47665 14.111 6.79532 13.9375 6.18671 13.6244V13.6756C6.18723 15.5987 7.65589 17.2551 9.69815 17.6359C9.05374 17.798 8.3777 17.8218 7.72185 17.7051C8.29518 19.3509 9.9384 20.4782 11.811 20.5108C10.2611 21.635 8.34649 22.2454 6.37522 22.2435C6.02697 22.243 5.67907 22.2234 5.33333 22.1852C7.33494 23.3709 9.66391 23.9998 12.0422 23.9969V24C20.0926 24 24.4958 17.8438 24.4958 12.5051Z" fill="#005DA0"/>
</svg>
