<svg width="1920" height="600" viewBox="0 0 1920 600" fill="none" xmlns="http://www.w3.org/2000/svg">
<mask id="mask0_1_162" style="mask-type:alpha" maskUnits="userSpaceOnUse" x="0" y="0" width="1920" height="600">
<path d="M0 0H1920V600H0V0Z" fill="white"/>
</mask>
<g mask="url(#mask0_1_162)">
<path fill-rule="evenodd" clip-rule="evenodd" d="M15.9999 0C39.348 40.1981 73.6969 73.7622 118.796 95.0156C221.339 143.341 212.937 222.943 204.027 307.355C198.766 357.198 193.328 408.718 210.448 456.466C256.563 585.081 421.978 634.413 592.49 575.05C693.671 539.824 765.134 554.818 845.969 571.778C901.36 583.399 961.15 595.944 1037.92 593.888C1132.81 591.345 1199.38 540.947 1260.7 494.525C1321.38 448.585 1376.92 406.54 1449.67 418.624C1595.94 442.919 1724.71 384.787 1774.48 287.55C1793.03 251.299 1795.7 211.295 1798.28 172.453C1802.63 107.105 1806.76 45.0428 1885.98 9.66473C1892.28 6.8512 1898.29 3.61649 1904 0H15.9999Z" fill="url(#paint0_linear_1_162)"/>
</g>
<defs>
<linearGradient id="paint0_linear_1_162" x1="376.502" y1="7.43733" x2="338.344" y2="551.349" gradientUnits="userSpaceOnUse">
<stop stop-color="#0774C7"/>
<stop offset="1" stop-color="#055DA0"/>
</linearGradient>
</defs>
</svg>
